<svg xmlns="http://www.w3.org/2000/svg" viewBox="0 0 39.59 31.48"><defs><style>.cls-1{fill:#fff;}</style></defs><title>rotate_active</title><g id="Layer_2" data-name="Layer 2"><g id="Icons"><path class="cls-1" d="M26.37,27.14c-10.44,6-21.51,5.74-25.2-.65s1.6-16.12,12-22.15S34.72-1.4,38.41,5,36.82,21.11,26.37,27.14Zm-11-19c-7,4-13,11.68-10.44,16.16s12.2,3.09,19.21-1,13-11.68,10.43-16.16S22.41,4.09,15.41,8.14Z"/><path class="cls-1" d="M35.4,28.44,23.65,27A1.4,1.4,0,0,1,22.53,25l4.6-10.92A1.41,1.41,0,0,1,29.64,14l7.15,12.38A1.41,1.41,0,0,1,35.4,28.44Z"/><path class="cls-1" d="M5,2.6,16.7,4.08A1.39,1.39,0,0,1,17.81,6l-4.6,10.92a1.4,1.4,0,0,1-2.5.15L3.56,4.7A1.41,1.41,0,0,1,5,2.6Z"/></g></g></svg>