<svg xmlns="http://www.w3.org/2000/svg" viewBox="0 0 36.92 39.14"><defs><style>.cls-1{fill:#fff;}</style></defs><title>canvastool_active</title><g id="Layer_2" data-name="Layer 2"><g id="Icons"><path class="cls-1" d="M32.81,9.63l-3.47,6.08a.11.11,0,0,1-.2-.07l1.47-10.3a2.55,2.55,0,0,0-1.26-2.58l0,0A2.59,2.59,0,0,0,25.5,4.38l-2.11,8.87a.11.11,0,0,1-.21,0L22.69,2.61A2.73,2.73,0,0,0,20.17,0h-.05a2.76,2.76,0,0,0-3,2.63l-.47,10.29a.11.11,0,0,1-.21,0l-1.53-9.7A3,3,0,0,0,11.24.79l-.08,0A3,3,0,0,0,8.9,4.09l1.73,14.43a.53.53,0,0,1-.86.47C7.86,17.48,3.27,14,.56,16.2-3.09,19.12,12.25,25.7,13,37.39c0,0,10.23,4.38,16.81-.73C29.08,24,34.64,19.41,36.84,11.32a2.22,2.22,0,0,0-.33-1.84h0A2.18,2.18,0,0,0,32.81,9.63Z"/></g></g></svg>